<svg version="1.1" id="Слой_1" xmlns="http://www.w3.org/2000/svg" x="0" y="0" viewBox="0 0 200 50" xml:space="preserve">
  <path fill="#009cf7" class="st0" d="M45.2 5.2h-41c-.3 0-.6.3-.6.6v41c0 .3.3.6.6.6h41c.3 0 .6-.3.6-.6v-41c0-.4-.3-.6-.6-.6zm-13.1 36c-1.9 0-2.7-.4-3.9-1.7-1.2-1.3-1.7-2.9-1.7-5.1 0-1.5.2-4.6.7-9.4l.9-9.2h-6.8c-.4 7.7-1 13.4-1.6 17-.6 3.6-1.3 5.9-2.1 6.9a3.8 3.8 0 01-5.6.7c-.7-.6-1-1.3-1-2.3 0-.9.6-2.1 1.7-3.7 1.7-2.3 2.9-4.6 3.8-7 .8-2.4 1.5-6.3 1.9-11.6h-2.2c-1.7 0-3.1.4-4 1.2a13 13 0 00-2.6 3.3H8.3c.6-2.3 1.4-4.1 2.4-5.6s2-2.4 3-2.9c1-.4 2.9-.7 5.5-.7h20.4v4.7h-7.4l-.6 9.7-.2 4.4c0 3 .6 4.9 1 5.4.5.5.9 1 1.9 1 2 0 3.8-1.3 4.2-3.9h1.1c-.6 5.9-3.5 8.8-7.5 8.8zM78.3 41.2h-4.5c-.3 0-.5-.1-.5-.5V16.4c0-.3-.1-.5-.5-.5h-8.9c-.3 0-.5.1-.5.5v24.3c0 .3-.1.5-.5.5h-4.6c-.3 0-.5-.1-.5-.5V11.4c0-.3.1-.5.5-.5h20c.3 0 .5.1.5.5v29.3c0 .4-.1.5-.5.5zM103.3 19.8c0 5-3.6 8.5-8.9 8.5H90c-.3 0-.5.1-.5.5v11.9c0 .3-.1.5-.5.5h-4.6c-.3 0-.5-.1-.5-.5V11.4c0-.3.1-.5.5-.5h9.9c5.4 0 9 3.5 9 8.9zm-5.5-.4c0-1.9-1.5-3.5-3.5-3.5H90c-.3 0-.5.1-.5.5v6.4c0 .3.1.5.5.5h4.3c1.9 0 3.5-1.5 3.5-3.5v-.4zM117.7 41.7h-2.4c-5.4 0-8.9-3.4-8.9-8.5V18.9c0-5.1 3.6-8.5 8.9-8.5h2.4c5.4 0 8.9 3.4 8.9 8.5v14.2c.1 5.2-3.5 8.6-8.9 8.6zm3.5-22.8c0-2-1.5-3.5-3.4-3.5h-2.4a3.5 3.5 0 00-3.5 3.5v14.2c0 1.9 1.5 3.5 3.5 3.5h2.4c1.9 0 3.4-1.5 3.4-3.5V18.9zM146.6 15.9h-5.2c-.3 0-.5.1-.5.5v24.3c0 .3-.1.5-.5.5h-4.5c-.3 0-.5-.1-.5-.5V16.4c0-.3-.1-.5-.5-.5h-5.2c-.3 0-.5-.1-.5-.5v-4.1c0-.3.1-.5.5-.5h16.9c.3 0 .5.1.5.5v4.1c0 .4-.1.5-.5.5zM168 41.2h-17c-.3 0-.5-.1-.5-.5V11.4c0-.3.1-.5.5-.5h17c.3 0 .5.1.5.5v4.1c0 .3-.1.5-.5.5h-11.4c-.3 0-.5.1-.5.5v6.4c0 .3.1.5.5.5h9.4c.3 0 .5.1.5.5V28c0 .3-.1.5-.5.5h-9.4c-.3 0-.5.1-.5.5v6.8c0 .3.1.5.5.5H168c.3 0 .5.1.5.5v4.1c0 .2-.1.3-.5.3zM172.5 40.7V11.4c0-.3.2-.5.5-.5h4.4c.3 0 .5.1.5.5l-.2 19.3 9.8-19.5c.1-.2.2-.2.4-.2h4c.3 0 .5.1.5.5v29.3c0 .3-.1.5-.5.5h-4.5c-.3 0-.5-.1-.5-.5l.2-19.1-9.7 19.3-.4.2h-4c-.3 0-.5-.1-.5-.5zM188.4 3.7v-.9c0-.3-.1-.5-.5-.5h-2.5c-.3 0-.5.1-.5.5 0 .8-.6 1.3-1.3 1.3h-2.1c-.8 0-1.4-.6-1.4-1.3 0-.3-.1-.5-.5-.5h-2.5c-.3 0-.5.1-.5.5v.9c0 2.7 1.9 4.6 4.8 4.6h2.1c3 0 4.9-1.9 4.9-4.6z"/>
</svg>